<svg width="25" height="25" viewBox="0 0 25 25" fill="none" xmlns="http://www.w3.org/2000/svg">
<g clip-path="url(#clip0_812_1345)">
<path d="M7.07383 9.28105H7.27383C8.04383 9.28105 8.67383 9.91106 8.67383 10.6811V17.6811C8.67383 18.4511 8.04383 19.0811 7.27383 19.0811H7.07383C6.30383 19.0811 5.67383 18.4511 5.67383 17.6811V10.6811C5.67383 9.91106 6.30383 9.28105 7.07383 9.28105ZM12.6738 5.08105C13.4438 5.08105 14.0738 5.71105 14.0738 6.48105V17.6811C14.0738 18.4511 13.4438 19.0811 12.6738 19.0811C11.9038 19.0811 11.2738 18.4511 11.2738 17.6811V6.48105C11.2738 5.71105 11.9038 5.08105 12.6738 5.08105ZM18.2738 13.0811C19.0438 13.0811 19.6738 13.7111 19.6738 14.4811V17.6811C19.6738 18.4511 19.0438 19.0811 18.2738 19.0811C17.5038 19.0811 16.8738 18.4511 16.8738 17.6811V14.4811C16.8738 13.7111 17.5038 13.0811 18.2738 13.0811Z" fill="#7848F4"/>
</g>
<defs>
<clipPath id="clip0_812_1345">
<rect width="24" height="24" fill="white" transform="translate(0.673828 0.0810547)"/>
</clipPath>
</defs>
</svg>
