<svg width="49" height="49" viewBox="0 0 49 49" fill="none" xmlns="http://www.w3.org/2000/svg">
<rect width="49" height="49" fill="#D2D2D2"/>
<path d="M-3925 -2110C-3925 -2111.1 -3924.1 -2112 -3923 -2112H5665C5666.1 -2112 5667 -2111.1 5667 -2110V5718C5667 5719.1 5666.1 5720 5665 5720H-3923C-3924.1 5720 -3925 5719.1 -3925 5718V-2110Z" fill="#E5E5E5"/>
<path d="M-3923 -2111H5665V-2113H-3923V-2111ZM5666 -2110V5718H5668V-2110H5666ZM5665 5719H-3923V5721H5665V5719ZM-3924 5718V-2110H-3926V5718H-3924ZM-3923 5719C-3923.55 5719 -3924 5718.55 -3924 5718H-3926C-3926 5719.66 -3924.66 5721 -3923 5721V5719ZM5666 5718C5666 5718.55 5665.55 5719 5665 5719V5721C5666.66 5721 5668 5719.66 5668 5718H5666ZM5665 -2111C5665.55 -2111 5666 -2110.55 5666 -2110H5668C5668 -2111.66 5666.66 -2113 5665 -2113V-2111ZM-3923 -2113C-3924.66 -2113 -3926 -2111.66 -3926 -2110H-3924C-3924 -2110.55 -3923.55 -2111 -3923 -2111V-2113Z" fill="black" fill-opacity="0.1"/>
<rect x="-1378" y="-1691" width="1440" height="4459" rx="20" fill="#F8F8FA"/>
<g filter="url(#filter0_d_5_1133)">
<rect x="-444.667" y="-300" width="386.667" height="400" rx="10" fill="white"/>
</g>
<rect x="-18" y="-15" width="80" height="80" rx="5" fill="#FF5C81"/>
<path fill-rule="evenodd" clip-rule="evenodd" d="M25.2658 7.65625C21.0016 7.65625 16.912 9.35019 13.8968 12.3654C10.8816 15.3807 9.18763 19.4702 9.18763 23.7344V39.8125H25.2658C27.3772 39.8125 29.4679 39.3966 31.4186 38.5886C33.3693 37.7806 35.1417 36.5963 36.6347 35.1033C38.1277 33.6103 39.312 31.8379 40.12 29.8872C40.928 27.9365 41.3439 25.8458 41.3439 23.7344C41.3439 21.623 40.928 19.5322 40.12 17.5815C39.312 15.6309 38.1277 13.8584 36.6347 12.3654C35.1417 10.8724 33.3693 9.68813 31.4186 8.88012C29.4679 8.07212 27.3772 7.65625 25.2658 7.65625ZM25.2658 42.875H9.13855C8.74384 42.8787 8.35229 42.804 7.98656 42.6553C7.61714 42.5052 7.28154 42.2825 6.99956 42.0006C6.71759 41.7186 6.49495 41.383 6.34478 41.0136C6.19612 40.6478 6.12148 40.2563 6.12513 39.8616V23.7344C6.12513 18.658 8.14172 13.7895 11.7313 10.1999C15.3209 6.61035 20.1893 4.59375 25.2658 4.59375C27.7793 4.59375 30.2683 5.08884 32.5906 6.05074C34.9128 7.01265 37.0228 8.42254 38.8002 10.1999C40.5776 11.9773 41.9875 14.0873 42.9494 16.4096C43.9113 18.7318 44.4064 21.2208 44.4064 23.7344C44.4064 26.248 43.9113 28.7369 42.9494 31.0592C41.9875 33.3814 40.5776 35.4915 38.8002 37.2688C37.0228 39.0462 34.9128 40.4561 32.5906 41.418C30.2683 42.3799 27.7793 42.875 25.2658 42.875Z" fill="white"/>
<path d="M25.2656 26.7969C26.5342 26.7969 27.5625 25.7685 27.5625 24.5C27.5625 23.2315 26.5342 22.2031 25.2656 22.2031C23.9971 22.2031 22.9688 23.2315 22.9688 24.5C22.9688 25.7685 23.9971 26.7969 25.2656 26.7969Z" fill="white"/>
<path d="M16.0781 26.7969C17.3467 26.7969 18.375 25.7685 18.375 24.5C18.375 23.2315 17.3467 22.2031 16.0781 22.2031C14.8096 22.2031 13.7812 23.2315 13.7812 24.5C13.7812 25.7685 14.8096 26.7969 16.0781 26.7969Z" fill="white"/>
<path d="M34.4531 26.7969C35.7217 26.7969 36.75 25.7685 36.75 24.5C36.75 23.2315 35.7217 22.2031 34.4531 22.2031C33.1846 22.2031 32.1562 23.2315 32.1562 24.5C32.1562 25.7685 33.1846 26.7969 34.4531 26.7969Z" fill="white"/>
<defs>
<filter id="filter0_d_5_1133" x="-524.667" y="-388" width="546.667" height="560" filterUnits="userSpaceOnUse" color-interpolation-filters="sRGB">
<feFlood flood-opacity="0" result="BackgroundImageFix"/>
<feColorMatrix in="SourceAlpha" type="matrix" values="0 0 0 0 0 0 0 0 0 0 0 0 0 0 0 0 0 0 127 0" result="hardAlpha"/>
<feOffset dy="-8"/>
<feGaussianBlur stdDeviation="40"/>
<feColorMatrix type="matrix" values="0 0 0 0 0 0 0 0 0 0 0 0 0 0 0 0 0 0 0.07 0"/>
<feBlend mode="normal" in2="BackgroundImageFix" result="effect1_dropShadow_5_1133"/>
<feBlend mode="normal" in="SourceGraphic" in2="effect1_dropShadow_5_1133" result="shape"/>
</filter>
</defs>
</svg>
